<mxfile host="65bd71144e">
    <diagram id="7SQKZ7n8slPka3-PPJtH" name="Page-1">
        <mxGraphModel dx="506" dy="980" grid="1" gridSize="10" guides="1" tooltips="1" connect="1" arrows="1" fold="1" page="1" pageScale="1" pageWidth="980" pageHeight="690" background="none" math="0" shadow="0">
            <root>
                <mxCell id="0"/>
                <mxCell id="1" parent="0"/>
                <mxCell id="3" value="class AMateria" style="whiteSpace=wrap;html=1;" parent="1" vertex="1">
                    <mxGeometry x="390" y="260" width="100" height="60" as="geometry"/>
                </mxCell>
                <mxCell id="5" style="edgeStyle=none;html=1;entryX=0.5;entryY=0;entryDx=0;entryDy=0;fontColor=#F00202;" parent="1" source="4" target="3" edge="1">
                    <mxGeometry relative="1" as="geometry"/>
                </mxCell>
                <mxCell id="4" value="&lt;font color=&quot;#f00202&quot; style=&quot;background-color: rgb(255 , 255 , 255)&quot;&gt;ABSTRACT&lt;/font&gt;" style="text;html=1;align=center;verticalAlign=middle;resizable=0;points=[];autosize=1;strokeColor=none;fillColor=none;" parent="1" vertex="1">
                    <mxGeometry x="400" y="200" width="80" height="20" as="geometry"/>
                </mxCell>
                <mxCell id="8" style="edgeStyle=none;html=1;entryX=0.164;entryY=1.076;entryDx=0;entryDy=0;entryPerimeter=0;labelBackgroundColor=#333333;fontColor=#F0F0F0;strokeColor=#33FF33;" parent="1" source="7" target="3" edge="1">
                    <mxGeometry relative="1" as="geometry"/>
                </mxCell>
                <mxCell id="27" style="edgeStyle=none;html=1;labelBackgroundColor=#333333;fontSize=24;fontColor=#FFFFFF;strokeColor=#FFFF33;" parent="1" source="7" target="10" edge="1">
                    <mxGeometry relative="1" as="geometry"/>
                </mxCell>
                <mxCell id="7" value="CONSTRUCTOR SET THE TYPE" style="rounded=1;whiteSpace=wrap;html=1;labelBackgroundColor=#333333;fontColor=#ffffff;fillColor=#60a917;strokeColor=#2D7600;" parent="1" vertex="1">
                    <mxGeometry x="330" y="390" width="120" height="50" as="geometry"/>
                </mxCell>
                <mxCell id="11" value="" style="edgeStyle=none;html=1;labelBackgroundColor=#333333;fontColor=#F0F0F0;strokeColor=#33FF33;" parent="1" source="10" target="3" edge="1">
                    <mxGeometry relative="1" as="geometry"/>
                </mxCell>
                <mxCell id="10" value="TYPE" style="rhombus;whiteSpace=wrap;html=1;labelBackgroundColor=#333333;fontColor=#F0F0F0;" parent="1" vertex="1">
                    <mxGeometry x="520" y="250" width="80" height="80" as="geometry"/>
                </mxCell>
                <mxCell id="13" style="edgeStyle=none;html=1;exitX=0;exitY=0;exitDx=0;exitDy=0;entryX=1;entryY=1;entryDx=0;entryDy=0;labelBackgroundColor=#333333;fontColor=#F0F0F0;strokeColor=#33FF33;" parent="1" source="12" target="3" edge="1">
                    <mxGeometry relative="1" as="geometry"/>
                </mxCell>
                <mxCell id="12" value="&amp;nbsp; &amp;nbsp; &amp;nbsp; &amp;nbsp; &amp;nbsp;CLONE&amp;nbsp; &amp;nbsp; &amp;nbsp; &amp;nbsp;" style="rounded=1;whiteSpace=wrap;html=1;labelBackgroundColor=#333333;fontColor=#ffffff;fillColor=#008a00;strokeColor=#005700;" parent="1" vertex="1">
                    <mxGeometry x="510" y="390" width="120" height="60" as="geometry"/>
                </mxCell>
                <mxCell id="16" style="edgeStyle=none;html=1;entryX=1;entryY=0.25;entryDx=0;entryDy=0;labelBackgroundColor=#333333;fontColor=#FF0000;strokeColor=#33FF33;" parent="1" source="14" target="12" edge="1">
                    <mxGeometry relative="1" as="geometry"/>
                </mxCell>
                <mxCell id="14" value="&lt;font color=&quot;#ff0000&quot; style=&quot;background-color: rgb(255 , 255 , 255)&quot;&gt;PURE VIRTUAL&lt;/font&gt;" style="text;html=1;align=center;verticalAlign=middle;resizable=0;points=[];autosize=1;strokeColor=none;fillColor=none;fontColor=#F0F0F0;" parent="1" vertex="1">
                    <mxGeometry x="650" y="430" width="100" height="20" as="geometry"/>
                </mxCell>
                <mxCell id="20" style="edgeStyle=none;html=1;labelBackgroundColor=#333333;fontColor=#FFFFFF;strokeColor=#33FF33;" parent="1" source="17" edge="1">
                    <mxGeometry relative="1" as="geometry">
                        <mxPoint x="380" y="320" as="targetPoint"/>
                    </mxGeometry>
                </mxCell>
                <mxCell id="29" style="edgeStyle=none;html=1;labelBackgroundColor=#333333;fontSize=24;fontColor=#FFFFFF;strokeColor=#999900;" parent="1" source="17" target="28" edge="1">
                    <mxGeometry relative="1" as="geometry">
                        <mxPoint x="190" y="460" as="targetPoint"/>
                    </mxGeometry>
                </mxCell>
                <mxCell id="17" value="&lt;font color=&quot;#ffffff&quot; style=&quot;background-color: rgb(0 , 0 , 0)&quot;&gt;USE (&lt;/font&gt;&lt;font style=&quot;background-color: rgb(0 , 0 , 0)&quot; color=&quot;#ff0080&quot;&gt;ICHARCHTER&lt;/font&gt;&lt;font color=&quot;#ffffff&quot; style=&quot;background-color: rgb(0 , 0 , 0)&quot;&gt;)&lt;/font&gt;" style="whiteSpace=wrap;html=1;labelBackgroundColor=#FFFFFF;fontColor=#ffffff;fillColor=#60a917;strokeColor=#2D7600;" parent="1" vertex="1">
                    <mxGeometry x="190" y="330" width="120" height="50" as="geometry"/>
                </mxCell>
                <mxCell id="22" value="&lt;font color=&quot;#ffffff&quot; style=&quot;font-size: 24px&quot;&gt;class Ice&lt;/font&gt;" style="whiteSpace=wrap;html=1;labelBackgroundColor=#000000;fontColor=#FF0080;" parent="1" vertex="1">
                    <mxGeometry x="290" y="70" width="120" height="60" as="geometry"/>
                </mxCell>
                <mxCell id="24" value="&lt;font color=&quot;#ffffff&quot; style=&quot;font-size: 24px&quot;&gt;class Cure&lt;/font&gt;" style="whiteSpace=wrap;html=1;labelBackgroundColor=#000000;fontColor=#FF0080;" parent="1" vertex="1">
                    <mxGeometry x="540" y="70" width="120" height="60" as="geometry"/>
                </mxCell>
                <mxCell id="25" value="" style="edgeStyle=elbowEdgeStyle;elbow=vertical;endArrow=classic;html=1;labelBackgroundColor=#333333;fontSize=24;fontColor=#FFFFFF;strokeColor=#3333FF;entryX=0.75;entryY=1;entryDx=0;entryDy=0;" parent="1" target="24" edge="1">
                    <mxGeometry width="50" height="50" relative="1" as="geometry">
                        <mxPoint x="610" y="390" as="sourcePoint"/>
                        <mxPoint x="623" y="130" as="targetPoint"/>
                        <Array as="points">
                            <mxPoint x="720" y="310"/>
                        </Array>
                    </mxGeometry>
                </mxCell>
                <mxCell id="26" value="" style="edgeStyle=elbowEdgeStyle;elbow=horizontal;endArrow=classic;html=1;labelBackgroundColor=#333333;fontSize=24;fontColor=#FFFFFF;strokeColor=#3333FF;entryX=1;entryY=1;entryDx=0;entryDy=0;" parent="1" target="22" edge="1">
                    <mxGeometry width="50" height="50" relative="1" as="geometry">
                        <mxPoint x="610" y="390" as="sourcePoint"/>
                        <mxPoint x="490" y="310" as="targetPoint"/>
                        <Array as="points">
                            <mxPoint x="600" y="150"/>
                        </Array>
                    </mxGeometry>
                </mxCell>
                <mxCell id="28" value="print a message" style="text;html=1;align=center;verticalAlign=middle;resizable=0;points=[];autosize=1;strokeColor=none;fillColor=none;fontSize=24;fontColor=#FFFFFF;" parent="1" vertex="1">
                    <mxGeometry x="60" y="440" width="190" height="30" as="geometry"/>
                </mxCell>
                <mxCell id="33" value="ICharacter" style="whiteSpace=wrap;html=1;labelBackgroundColor=#000000;fontSize=24;fontColor=#FFFFFF;" parent="1" vertex="1">
                    <mxGeometry x="930" y="172.5" width="120" height="60" as="geometry"/>
                </mxCell>
                <mxCell id="35" style="edgeStyle=none;html=1;labelBackgroundColor=#333333;fontSize=24;fontColor=#FF3333;strokeColor=#999900;entryX=0.5;entryY=0;entryDx=0;entryDy=0;" parent="1" source="34" target="33" edge="1">
                    <mxGeometry relative="1" as="geometry">
                        <mxPoint x="990" y="152.5" as="targetPoint"/>
                    </mxGeometry>
                </mxCell>
                <mxCell id="34" value="&lt;font color=&quot;#ff3333&quot; style=&quot;background-color: rgb(255 , 255 , 255)&quot;&gt;interface&lt;/font&gt;" style="text;html=1;align=center;verticalAlign=middle;resizable=0;points=[];autosize=1;strokeColor=none;fillColor=none;fontSize=24;fontColor=#FFFFFF;" parent="1" vertex="1">
                    <mxGeometry x="935" y="87.5" width="110" height="30" as="geometry"/>
                </mxCell>
                <mxCell id="39" style="edgeStyle=none;html=1;labelBackgroundColor=#333333;fontSize=24;fontColor=#FFFFFF;strokeColor=#33FF33;" parent="1" source="38" target="33" edge="1">
                    <mxGeometry relative="1" as="geometry"/>
                </mxCell>
                <mxCell id="38" value="getname" style="whiteSpace=wrap;html=1;labelBackgroundColor=#1A1A1A;fontSize=24;fontColor=#ffffff;strokeColor=#005700;fillColor=#008a00;" parent="1" vertex="1">
                    <mxGeometry x="890" y="272.5" width="120" height="60" as="geometry"/>
                </mxCell>
                <mxCell id="41" style="edgeStyle=none;html=1;entryX=1;entryY=1;entryDx=0;entryDy=0;labelBackgroundColor=#333333;fontSize=24;fontColor=#FFFFFF;strokeColor=#33FF33;" parent="1" source="40" target="33" edge="1">
                    <mxGeometry relative="1" as="geometry"/>
                </mxCell>
                <mxCell id="40" value="unequipe" style="whiteSpace=wrap;html=1;labelBackgroundColor=#1A1A1A;fontSize=24;fontColor=#ffffff;strokeColor=#005700;fillColor=#008a00;" parent="1" vertex="1">
                    <mxGeometry x="1060" y="272.5" width="120" height="60" as="geometry"/>
                </mxCell>
                <mxCell id="332" style="edgeStyle=none;html=1;entryX=0;entryY=0.5;entryDx=0;entryDy=0;labelBackgroundColor=#333333;fontSize=24;fontColor=#FFFFFF;strokeColor=#33FF33;" parent="1" source="330" target="33" edge="1">
                    <mxGeometry relative="1" as="geometry"/>
                </mxCell>
                <mxCell id="330" value="use" style="whiteSpace=wrap;html=1;labelBackgroundColor=#1A1A1A;fontSize=24;fontColor=#ffffff;strokeColor=#005700;fillColor=#008a00;" parent="1" vertex="1">
                    <mxGeometry x="730" y="180" width="140" height="50" as="geometry"/>
                </mxCell>
                <mxCell id="333" style="edgeStyle=none;html=1;entryX=1;entryY=0.5;entryDx=0;entryDy=0;labelBackgroundColor=#333333;fontSize=24;fontColor=#FFFFFF;strokeColor=#33FF33;" parent="1" source="331" target="33" edge="1">
                    <mxGeometry relative="1" as="geometry"/>
                </mxCell>
                <mxCell id="331" value="equipe" style="whiteSpace=wrap;html=1;labelBackgroundColor=#1A1A1A;fontSize=24;fontColor=#ffffff;strokeColor=#005700;fillColor=#008a00;" parent="1" vertex="1">
                    <mxGeometry x="1130" y="172.5" width="120" height="60" as="geometry"/>
                </mxCell>
                <mxCell id="334" value="&lt;font style=&quot;font-size: 36px&quot;&gt;Character&lt;/font&gt;" style="whiteSpace=wrap;html=1;" parent="1" vertex="1">
                    <mxGeometry x="880" y="570" width="210" height="70" as="geometry"/>
                </mxCell>
                <mxCell id="338" style="edgeStyle=none;html=1;exitX=1;exitY=0;exitDx=0;exitDy=0;entryX=0.25;entryY=0;entryDx=0;entryDy=0;fontSize=36;" parent="1" source="335" target="337" edge="1">
                    <mxGeometry relative="1" as="geometry"/>
                </mxCell>
                <mxCell id="339" style="edgeStyle=none;html=1;exitX=1;exitY=1;exitDx=0;exitDy=0;entryX=0.25;entryY=1;entryDx=0;entryDy=0;fontSize=36;" parent="1" source="335" target="337" edge="1">
                    <mxGeometry relative="1" as="geometry"/>
                </mxCell>
                <mxCell id="340" style="edgeStyle=none;html=1;entryX=0.054;entryY=1.046;entryDx=0;entryDy=0;entryPerimeter=0;fontSize=36;strokeColor=#33FF33;exitX=1;exitY=0;exitDx=0;exitDy=0;" parent="1" source="335" target="334" edge="1">
                    <mxGeometry relative="1" as="geometry"/>
                </mxCell>
                <mxCell id="335" value="4 materia" style="whiteSpace=wrap;html=1;fontSize=36;" parent="1" vertex="1">
                    <mxGeometry x="740" y="670" width="160" height="60" as="geometry"/>
                </mxCell>
                <mxCell id="337" value="size" style="whiteSpace=wrap;html=1;fontSize=36;" parent="1" vertex="1">
                    <mxGeometry x="900" y="680" width="100" height="40" as="geometry"/>
                </mxCell>
                <mxCell id="342" value="" style="edgeStyle=elbowEdgeStyle;elbow=vertical;endArrow=classic;html=1;fontSize=36;strokeColor=#33FF33;exitX=0.25;exitY=1;exitDx=0;exitDy=0;entryX=0.656;entryY=1.082;entryDx=0;entryDy=0;entryPerimeter=0;" parent="1" source="330" target="17" edge="1">
                    <mxGeometry width="50" height="50" relative="1" as="geometry">
                        <mxPoint x="760" y="280" as="sourcePoint"/>
                        <mxPoint x="770" y="400" as="targetPoint"/>
                        <Array as="points">
                            <mxPoint x="720" y="520"/>
                        </Array>
                    </mxGeometry>
                </mxCell>
                <mxCell id="343" value="&lt;font color=&quot;#33ff33&quot;&gt;put index and use the materia&lt;/font&gt;" style="edgeLabel;html=1;align=center;verticalAlign=middle;resizable=0;points=[];" parent="342" vertex="1" connectable="0">
                    <mxGeometry x="0.2716" relative="1" as="geometry">
                        <mxPoint as="offset"/>
                    </mxGeometry>
                </mxCell>
                <mxCell id="344" value="" style="curved=1;endArrow=classic;html=1;fontColor=#33FF33;strokeColor=#ae4132;fillColor=#fad9d5;" parent="1" source="331" edge="1">
                    <mxGeometry width="50" height="50" relative="1" as="geometry">
                        <mxPoint x="1140" y="170" as="sourcePoint"/>
                        <mxPoint x="870" y="205" as="targetPoint"/>
                        <Array as="points">
                            <mxPoint x="1140" y="130"/>
                            <mxPoint x="1060" y="80"/>
                            <mxPoint x="1000" y="70"/>
                            <mxPoint x="880" y="80"/>
                        </Array>
                    </mxGeometry>
                </mxCell>
                <mxCell id="349" value="" style="curved=1;endArrow=classic;html=1;fontColor=#000000;strokeColor=#ae4132;entryX=0.681;entryY=1.035;entryDx=0;entryDy=0;entryPerimeter=0;exitX=0.25;exitY=1;exitDx=0;exitDy=0;align=center;labelBackgroundColor=#666666;sketch=0;fillColor=#fad9d5;" parent="1" source="40" target="330" edge="1">
                    <mxGeometry width="50" height="50" relative="1" as="geometry">
                        <mxPoint x="1070" y="330" as="sourcePoint"/>
                        <mxPoint x="1260" y="300" as="targetPoint"/>
                        <Array as="points">
                            <mxPoint x="1070" y="360"/>
                            <mxPoint x="1020" y="390"/>
                            <mxPoint x="800" y="370"/>
                        </Array>
                    </mxGeometry>
                </mxCell>
                <mxCell id="353" value="&lt;font color=&quot;#ffc300&quot;&gt;use it to set the materia&amp;nbsp;&lt;/font&gt;" style="edgeLabel;html=1;align=center;verticalAlign=middle;resizable=0;points=[];fontColor=#CCFFE6;" parent="349" vertex="1" connectable="0">
                    <mxGeometry x="-0.2269" relative="1" as="geometry">
                        <mxPoint as="offset"/>
                    </mxGeometry>
                </mxCell>
                <mxCell id="354" value="&lt;font style=&quot;font-size: 24px&quot;&gt;IMateria source&lt;/font&gt;" style="whiteSpace=wrap;html=1;" parent="1" vertex="1">
                    <mxGeometry x="1300" y="310" width="180" height="70" as="geometry"/>
                </mxCell>
                <mxCell id="356" style="edgeStyle=none;html=1;entryX=0;entryY=1;entryDx=0;entryDy=0;fontSize=36;fillColor=#60a917;strokeColor=#00FF00;" parent="1" source="355" target="354" edge="1">
                    <mxGeometry relative="1" as="geometry"/>
                </mxCell>
                <mxCell id="355" value="&lt;span style=&quot;background-color: rgb(26 , 26 , 26)&quot;&gt;&lt;font style=&quot;font-size: 24px&quot;&gt;learnMateria&lt;/font&gt;&lt;/span&gt;" style="whiteSpace=wrap;html=1;fontSize=36;fillColor=#008a00;fontColor=#ffffff;strokeColor=#005700;" parent="1" vertex="1">
                    <mxGeometry x="1170" y="450" width="180" height="60" as="geometry"/>
                </mxCell>
                <mxCell id="358" style="edgeStyle=none;html=1;entryX=1;entryY=1;entryDx=0;entryDy=0;fontSize=24;strokeColor=#00FF00;" parent="1" source="357" target="354" edge="1">
                    <mxGeometry relative="1" as="geometry"/>
                </mxCell>
                <mxCell id="357" value="&lt;font style=&quot;font-size: 24px&quot;&gt;creat materia&lt;/font&gt;" style="whiteSpace=wrap;html=1;labelBackgroundColor=#1A1A1A;fontSize=36;fillColor=#008a00;fontColor=#ffffff;strokeColor=#005700;" parent="1" vertex="1">
                    <mxGeometry x="1490" y="450" width="160" height="60" as="geometry"/>
                </mxCell>
                <mxCell id="361" value="" style="edgeStyle=elbowEdgeStyle;elbow=vertical;endArrow=classic;html=1;fontSize=24;strokeColor=#3333FF;entryX=0.667;entryY=1;entryDx=0;entryDy=0;entryPerimeter=0;" parent="1" source="357" target="12" edge="1">
                    <mxGeometry width="50" height="50" relative="1" as="geometry">
                        <mxPoint x="1450" y="590" as="sourcePoint"/>
                        <mxPoint x="1500" y="540" as="targetPoint"/>
                        <Array as="points">
                            <mxPoint x="1040" y="520"/>
                        </Array>
                    </mxGeometry>
                </mxCell>
            </root>
        </mxGraphModel>
    </diagram>
</mxfile>